<svg width="175" height="31" fill="none" xmlns="http://www.w3.org/2000/svg"><g clip-path="url(#clip0)" fill-rule="evenodd" clip-rule="evenodd"><path d="M42.091 27.645l.305.05h2.567l3.394-14.123h4.056a.814.814 0 01.578.227c.166.162.305.35.411.555.111.215.192.443.24.68a3.204 3.204 0 01-.356 2.35 3.168 3.168 0 01-1.09 1.053 5.61 5.61 0 01-1.582.564c-.615.13-1.166.236-1.642.32l-.102.67 3.103 7.704h3.006l-2.927-6.728a10.049 10.049 0 003.07-1.656 5.902 5.902 0 001.425-2.03 6.74 6.74 0 00.513-2.682 3.283 3.283 0 00-.375-1.655 2.774 2.774 0 00-.984-1.032 5.514 5.514 0 00-1.466-.587 13.552 13.552 0 00-2.386-.324h-6.063l-3.7 16.648.005-.005zm16.329.05h2.876l7.5-13.355 1.439 11.145-5.008-.028-1.258 2.188.462.05h9.25s.055-.064.115-.194c.06-.13.106-.236.138-.319v-.259l-2.566-15.922h-4.056l-8.888 16.694h-.004zm20.953-16.647l-3.39 16.647h9.031a5.053 5.053 0 002.632-.744 10.223 10.223 0 002.275-1.85 12.415 12.415 0 001.757-2.45c1.85-3.58 1.952-10.692-3.121-11.377-.375-.05-.842-.07-1.388-.101a72.112 72.112 0 00-1.581-.08c-.5-.018-.999-.031-1.512-.036-.514-.005-1.096 0-1.748 0H80.58l-1.207-.01zm.23 13.535l2.34-11.274 2.003.028h.435c.688-.002 1.374.054 2.053.166a4.97 4.97 0 011.776.63 3.51 3.51 0 011.244 1.28c.335.65.494 1.378.462 2.109v.795c-.462 2.377-1.387 4.196-2.774 5.457-1.388 1.26-3.291 1.89-5.712 1.887h-.31a4.211 4.211 0 01-.462-.028c-.17 0-.333-.023-.485-.023h-.8l.23-1.027zm21.342-13.586h-2.774L94.499 27.69h2.904c.031 0 1.212-5.565 3.542-16.694zm1.887 14.049a6.208 6.208 0 001.656 1.475 7.82 7.82 0 002.094.874 9.562 9.562 0 002.373.296 12.945 12.945 0 002.543-.26 10.88 10.88 0 002.428-.78 7.382 7.382 0 002.053-1.388 12.364 12.364 0 001.693-2.03 9.373 9.373 0 001.04-1.85c.179-.487.321-.986.426-1.494.111-.527.199-1.035.254-1.526.058-.387.089-.778.092-1.17-.18-4.337-3.542-6.182-7.343-6.21a11.927 11.927 0 00-4.199.694 9.799 9.799 0 00-3.302 1.951 8.326 8.326 0 00-2.127 3.094c-.925 2.252-1.346 6.21.319 8.324zm2.067-3.621a10.043 10.043 0 01.463-3.122 7.95 7.95 0 011.387-2.617 6.814 6.814 0 012.312-1.85 7.069 7.069 0 013.172-.68 3.778 3.778 0 011.772.389c.485.245.908.6 1.234 1.036.343.455.6.97.759 1.516.161.547.243 1.114.245 1.684a8.181 8.181 0 01-.504 2.876 7.75 7.75 0 01-1.411 2.414 6.96 6.96 0 01-2.206 1.697 6.471 6.471 0 01-2.89.638 4.892 4.892 0 01-1.683-.282 4.057 4.057 0 01-1.36-.795 3.886 3.886 0 01-.924-1.244 3.813 3.813 0 01-.347-1.656l-.019-.004zm23.765-10.132c-.925.263-1.424.407-1.475.425a7.75 7.75 0 00-1.466.652 8.373 8.373 0 00-1.388 1.004c-2.265 1.997-3.301 4.883-3.301 7.82 0 4.356 3.237 6.52 7.523 6.52.431 0 .925 0 1.425-.051.502-.03.999-.12 1.48-.268a2.96 2.96 0 001.165-.67 1.715 1.715 0 00.462-1.322c0-.034-.083-.122-.259-.256-5.822 1.022-10.756-.772-8.06-7.861.3-.593.684-1.138 1.142-1.619a7.782 7.782 0 011.748-1.387 9.872 9.872 0 012.077-.925 6.79 6.79 0 012.044-.347h.282l2.825.26h.153c.102 0 .194-.07.268-.209a2.21 2.21 0 00.194-.462c.051-.162.093-.324.13-.463.028-.123.045-.248.051-.374 0-1.355-6.114-.657-7.025-.398l.005-.07zm8.883 13.753a6.236 6.236 0 001.66 1.475 7.804 7.804 0 002.091.874 9.582 9.582 0 002.377.296 12.94 12.94 0 002.538-.26 10.71 10.71 0 002.428-.78 7.382 7.382 0 002.053-1.388 12.33 12.33 0 001.697-2.03 9.378 9.378 0 001.041-1.85c.177-.487.318-.986.421-1.494.786-3.7.189-7.422-4.028-8.55a11.687 11.687 0 00-2.969-.356c-1.429-.016-2.85.22-4.199.694a9.821 9.821 0 00-3.297 1.951 8.299 8.299 0 00-2.132 3.094c-.925 2.252-1.346 6.21.319 8.324zm2.067-3.621a10.226 10.226 0 01.463-3.122 8.046 8.046 0 011.387-2.617 6.766 6.766 0 012.312-1.85 7.054 7.054 0 013.205-.652 3.79 3.79 0 011.771.389c.485.245.906.6 1.23 1.035.32.451.557.955.698 1.49a5.85 5.85 0 01.246 1.683 8.274 8.274 0 01-.5 2.876 7.762 7.762 0 01-1.387 2.414 7.045 7.045 0 01-2.211 1.697 6.471 6.471 0 01-2.89.638 4.884 4.884 0 01-1.679-.282 4.13 4.13 0 01-1.387-.795 3.903 3.903 0 01-.925-1.244 3.842 3.842 0 01-.347-1.656l.014-.004zm29.481 6.215l2.848.074L175 11.612v-.125a1.421 1.421 0 00-.254-.49h-4.111c-3.956 8.324-5.949 12.486-5.98 12.486-.069 0-.12-.042-.157-.125a1.476 1.476 0 01-.074-.208l-1.285-12.172h-3.903l-3.7 16.648h2.978l2.673-12.638 1.027 12.638h2.876l6.571-12.638-2.566 12.652z" fill="#fff"/><path d="M4.453 12.675a12.023 12.023 0 0119.852-4.56 12.024 12.024 0 013.303 10.766l-2.336-.629a9.605 9.605 0 00-2.687-8.43 9.605 9.605 0 00-13.581 0 9.558 9.558 0 00-2.23 3.478l-2.311-.625h-.01zM0 11.482l2.312.625a14.118 14.118 0 013.431-5.55 14.202 14.202 0 0120.084 0 14.183 14.183 0 013.894 12.87l2.335.629a16.606 16.606 0 00-4.5-15.21A16.615 16.615 0 000 11.482z" fill="#B1B2B3"/><path d="M11.996 20.426a5.386 5.386 0 010-7.626 5.387 5.387 0 017.625 0 5.396 5.396 0 010 7.626 5.397 5.397 0 01-7.625 0z" fill="#E3000F"/><path d="M6.673 27.219a12.745 12.745 0 01-3.51-11.274l5.23 1.387a7.367 7.367 0 004.501 7.666A7.37 7.37 0 0020.93 23.4a7.399 7.399 0 001.558-2.312l5.23 1.387a12.667 12.667 0 01-2.982 4.694 12.758 12.758 0 01-18.063.051z" fill="#fff"/></g><defs><clipPath id="clip0"><path fill="#fff" d="M0 0h175v30.956H0z"/></clipPath></defs></svg>